<svg viewBox="0 0 60 60" x="0" y="0" width="100" height="100" class="image-svg-svg bn" style="overflow: visible;"><g hollow-target="iconBnFill" mask="url(#a6680383-99ec-4c85-888c-b7e86c2c0fda)"><g><svg viewBox="0.473 0.473 65.054 65.054" xmlns="http://www.w3.org/2000/svg" style="overflow: visible;" width="60" height="60" x="0" y="0" filtersec="colorsf5131489425" filter="url(#-Pjx_o02BO4-klGPNmpXk)"><g transform="scale(1, 1) skewX(0)"><path d="M65.527 33L33 65.527.473 33 33 .473z" fill="#000" fill-rule="nonzero"></path></g><defs><filter id="-Pjx_o02BO4-klGPNmpXk"><feColorMatrix type="matrix" values="0 0 0 0 0.93359375  0 0 0 0 0.2421875  0 0 0 0 0.26171875  0 0 0 1 0"></feColorMatrix></filter></defs></svg></g> <g filter="url(#colors3247581178)"><svg xmlns="http://www.w3.org/2000/svg" xmlns:xlink="http://www.w3.org/1999/xlink" viewBox="0 0 58.104000000000006 46.800000000000004" width="45" height="45" x="7.5" y="7.5" class="image-svg-letter"><path transform="translate(-2.088 46.080000000000005)" d="M30.53-11.95C25.92-9.00 24.41-9.36 14.40-9.36C14.40-40.61 13.46-40.39 16.27-46.08L2.09-46.08C4.90-40.25 4.61-31.46 3.89 0.72L28.44 0.72ZM50.11-36.00C56.59-36.00 55.87-36.22 60.19-33.98L58.82-46.08L30.89-46.08L29.45-33.84C33.62-36.14 33.34-36.00 39.60-36.00C39.60-14.76 39.89-4.97 37.73 0.72L51.98 0.72C49.82-5.18 50.11-14.76 50.11-36.00Z"></path></svg></g></g><mask id="a6680383-99ec-4c85-888c-b7e86c2c0fda"><g fill="white"><svg viewBox="0.473 0.473 65.054 65.054" xmlns="http://www.w3.org/2000/svg" style="overflow: visible;" width="60" height="60" x="0" y="0" filtersec="colorsf5131489425"><g transform="scale(1, 1) skewX(0)"><path d="M65.527 33L33 65.527.473 33 33 .473z" fill-rule="nonzero"></path></g><defs></defs></svg></g> <g fill="black"><svg xmlns="http://www.w3.org/2000/svg" xmlns:xlink="http://www.w3.org/1999/xlink" viewBox="0 0 58.104000000000006 46.800000000000004" width="45" height="45" x="7.5" y="7.5" class="image-svg-letter"><path transform="translate(-2.088 46.080000000000005)" d="M30.53-11.95C25.92-9.00 24.41-9.36 14.40-9.36C14.40-40.61 13.46-40.39 16.27-46.08L2.09-46.08C4.90-40.25 4.61-31.46 3.89 0.72L28.44 0.72ZM50.11-36.00C56.59-36.00 55.87-36.22 60.19-33.98L58.82-46.08L30.89-46.08L29.45-33.84C33.62-36.14 33.34-36.00 39.60-36.00C39.60-14.76 39.89-4.97 37.73 0.72L51.98 0.72C49.82-5.18 50.11-14.76 50.11-36.00Z"></path></svg></g></mask></svg>